<svg version="1.1" id="Layer_1" xmlns="http://www.w3.org/2000/svg" xmlns:xlink="http://www.w3.org/1999/xlink" x="0px" y="0px"
	 width="100%" viewBox="0 0 471 175" enable-background="new 0 0 471 175" xml:space="preserve">
<path fill="#000000" opacity="1.000000" stroke="none" 
	d="
M443.000000,176.000000 
	C369.312439,176.000000 295.624878,176.000000 221.477966,175.560806 
	C221.090881,167.017914 221.090881,167.009415 213.322235,167.006836 
	C194.175720,167.000458 175.029205,167.011108 155.882690,166.999710 
	C107.601669,166.970978 59.320652,166.933868 11.013275,166.438370 
	C11.024218,114.008492 11.061519,62.040344 11.390263,10.151491 
	C12.799410,10.073712 13.917115,9.916637 15.291441,9.827257 
	C15.722922,9.921961 15.897782,9.948973 16.206886,10.396714 
	C46.249283,10.877313 76.157433,10.943354 106.065605,10.954256 
	C106.684822,10.954482 107.304268,10.315610 108.183838,9.931881 
	C108.613800,9.842856 108.783524,9.796840 109.417786,9.847729 
	C121.264595,9.879130 132.646866,9.813625 144.289062,9.817292 
	C144.725357,9.918863 144.901733,9.951263 145.212967,10.403214 
	C174.217285,10.841135 203.086761,10.859506 232.422897,10.939322 
	C259.265961,10.947697 285.642334,10.894628 312.481445,10.912014 
	C342.511200,10.992214 372.078247,11.027686 401.645233,11.002487 
	C420.743378,10.986210 439.841492,10.881059 459.307678,10.881691 
	C460.422028,10.989795 461.168304,11.031943 461.948914,11.537931 
	C461.983246,63.537373 461.983246,115.072975 461.983246,166.987320 
	C459.269501,166.987320 457.128265,166.878357 455.002045,167.010757 
	C450.975250,167.261551 446.957092,167.650818 442.612000,168.199097 
	C442.485474,170.622345 442.682251,172.829056 442.931885,175.273987 
	C442.984741,175.512207 443.000000,176.000000 443.000000,176.000000 
M259.041992,152.696594 
	C259.041992,152.696594 258.977142,152.873398 258.357605,153.221909 
	C254.165787,159.899658 249.973953,166.577408 245.719162,173.355499 
	C251.114120,175.298035 253.802277,173.014374 255.980942,169.272491 
	C258.405090,165.108963 261.048859,161.073288 263.773254,156.698944 
	C265.660126,158.690689 267.249695,160.368622 268.999664,162.756622 
	C270.400513,165.333588 271.680084,167.986374 273.232117,170.468811 
	C275.283051,173.749176 278.104858,175.080383 282.766296,173.028564 
	C279.651550,168.252731 276.590302,163.888519 273.891754,159.310532 
	C271.952423,156.020493 270.497253,152.445053 269.140564,148.369797 
	C273.084290,142.259674 277.028015,136.149536 281.553802,129.774750 
	C281.649750,129.171906 281.745697,128.569046 281.445740,127.225777 
	C270.668152,127.153816 259.890625,127.064232 249.112961,127.053802 
	C248.468292,127.053177 247.822998,127.685860 246.770676,128.210068 
	C246.969009,128.475861 247.167343,128.741653 247.190018,129.697922 
	C249.208054,132.916290 251.226105,136.134644 253.585968,139.993118 
	C255.707382,143.036926 257.828796,146.080734 259.992706,149.752609 
	C260.046509,150.167435 260.100311,150.582260 259.983093,151.428391 
	C259.824371,151.690094 259.680603,151.959778 259.341736,152.388153 
	C259.341736,152.388153 259.209381,152.610306 259.041992,152.696594 
M91.382339,56.183224 
	C90.267746,56.848125 89.153160,57.513027 87.359497,58.231014 
	C84.633560,60.603859 81.744583,62.815327 79.209267,65.376839 
	C66.727768,77.987320 67.886940,99.303627 80.999603,110.751472 
	C80.619171,111.195656 80.300385,111.718414 79.849174,112.072380 
	C71.539894,118.591156 64.603722,125.534012 66.836380,137.700760 
	C68.165321,144.942703 74.292534,151.615372 81.831787,151.966812 
	C85.002419,152.114609 88.225342,152.327545 91.355339,151.944992 
	C102.224968,150.616516 113.133728,149.417633 123.893387,147.439438 
	C132.671280,145.825577 135.309402,147.095688 136.605759,156.282959 
	C137.850418,155.512009 139.026535,155.065369 139.819305,154.247269 
	C145.463760,148.422516 145.538406,141.358841 144.557419,133.878098 
	C143.941299,129.179840 141.421799,126.173965 137.653687,123.957756 
	C131.491119,120.333244 124.750458,121.892937 118.295670,122.456688 
	C109.181000,123.252731 100.163528,125.309875 91.045448,125.874954 
	C82.787605,126.386719 78.659637,119.661659 81.724197,113.183220 
	C86.548088,114.753380 91.273994,116.291641 96.773468,117.983368 
	C97.445175,116.994278 98.116890,116.005196 98.635468,114.194046 
	C98.367432,106.798454 98.099403,99.402870 97.988068,91.080673 
	C97.940002,81.737816 97.891945,72.394958 97.914581,62.280849 
	C97.886719,61.509640 97.858856,60.738426 97.971458,59.356937 
	C98.002548,58.940693 98.033638,58.524445 98.752510,58.007679 
	C99.754402,57.526524 100.756294,57.045364 101.771187,56.557964 
	C98.898689,52.028595 95.921501,54.879650 92.517365,56.072624 
	C92.517365,56.072624 92.040268,56.163132 91.382339,56.183224 
M60.607887,39.269390 
	C51.920383,39.183495 43.232811,39.104172 34.545425,39.007648 
	C31.982714,38.979176 31.132065,39.771046 33.042713,42.923367 
	C33.042713,68.460747 33.042713,93.998131 33.042713,119.406265 
	C42.107018,119.406265 51.749741,119.406265 60.794437,119.406265 
	C60.794437,115.223305 60.794437,111.641457 60.985088,107.125587 
	C60.928257,87.065186 60.871426,67.004784 60.955009,46.104069 
	C60.958698,44.399231 60.962391,42.694393 61.475578,40.951584 
	C61.351665,40.630398 61.227749,40.309212 60.607887,39.269390 
M263.330841,40.339703 
	C263.886139,41.903511 264.441467,43.467319 265.068817,45.962048 
	C265.019073,52.960453 264.969299,59.958862 264.294739,66.673340 
	C262.424744,64.565369 260.554718,62.457397 258.173035,60.133068 
	C258.037476,60.259254 257.901947,60.385437 257.594421,59.858707 
	C257.213898,59.649364 256.833405,59.440025 256.791992,58.857662 
	C256.725403,58.703381 256.658813,58.549099 256.339630,57.945095 
	C255.940247,57.612106 255.540863,57.279118 254.717621,56.305813 
	C249.628860,54.229172 244.408524,52.964928 238.959518,54.572075 
	C228.709488,57.595272 222.493988,65.288513 220.268311,74.878906 
	C217.796585,85.529572 217.380966,96.313538 223.781540,106.868874 
	C231.146622,119.014786 244.469467,122.732002 256.364349,116.222420 
	C260.320709,114.057259 261.369293,110.456238 263.706024,107.008217 
	C264.809387,107.674988 265.912720,108.341759 267.073914,109.728470 
	C270.647003,117.515656 276.831146,120.637924 287.347504,119.964310 
	C292.442291,119.637962 293.951782,116.962532 291.969696,111.098312 
	C291.926208,88.714561 291.882751,66.330803 292.121948,43.361012 
	C292.330688,42.582886 292.539459,41.804764 292.857056,40.173725 
	C291.607056,39.781662 290.363342,39.075832 289.106018,39.050781 
	C283.028229,38.929699 276.944824,38.902176 270.867615,39.033989 
	C268.524902,39.084805 266.193237,39.645218 263.330841,40.339703 
M378.266541,57.392296 
	C378.235779,76.598785 378.204987,95.805275 378.006165,115.797066 
	C377.708282,117.074295 377.410431,118.351517 377.061768,119.846497 
	C385.486786,119.846497 393.255524,119.846497 401.875946,119.984566 
	C403.486511,119.984566 405.097076,119.984566 405.892029,119.984566 
	C405.892029,114.369049 405.881104,109.305351 405.894257,104.241722 
	C405.922913,93.216972 405.897797,82.191010 406.105499,71.169502 
	C406.125488,70.109154 407.631989,68.209808 408.434601,68.217117 
	C409.964233,68.231033 412.173279,68.928856 412.862000,70.082176 
	C414.232178,72.376678 414.763611,75.172035 415.690460,77.904617 
	C420.414886,75.796860 425.234222,73.863525 429.805511,71.458763 
	C430.985016,70.838295 432.136108,68.665970 432.009857,67.328308 
	C431.539429,62.343460 426.327118,57.766186 420.418060,56.840984 
	C419.270630,56.934231 418.123199,57.027481 416.320435,57.019161 
	C415.882080,57.060940 415.443726,57.102715 414.385986,57.165802 
	C413.574188,57.721138 412.762390,58.276474 411.333496,59.170898 
	C409.258270,61.183258 407.183044,63.195621 404.845490,65.462334 
	C404.845490,62.219975 404.845490,59.283207 404.845490,55.543064 
	C401.572388,57.251175 398.784637,58.706005 395.094543,60.028225 
	C390.744110,59.405914 386.393646,58.783604 381.522705,57.897339 
	C380.673462,57.558475 379.824188,57.219608 378.266541,57.392296 
M212.996887,110.122475 
	C212.662918,100.605583 212.121170,91.090012 212.061188,81.571388 
	C212.013779,74.049683 212.558487,66.524239 212.965591,58.130051 
	C212.896835,56.862564 212.828079,55.595078 212.763351,54.401630 
	C202.969559,54.401630 193.591324,54.401630 185.233749,54.401630 
	C185.233749,70.856201 185.233749,86.928215 184.891830,103.654991 
	C180.668808,109.292671 175.032288,109.880646 171.972214,104.087784 
	C171.927979,89.040108 171.883759,73.992432 172.243103,58.247463 
	C172.485992,56.951378 172.728897,55.655289 172.993027,54.245880 
	C163.061234,54.245880 153.787811,54.245880 143.921539,54.245880 
	C144.311630,57.881424 144.941406,61.230240 144.981369,64.586075 
	C145.112183,75.570663 145.468307,86.581284 144.883514,97.536301 
	C144.440430,105.836838 150.883682,114.844086 158.601837,118.260536 
	C170.925446,123.715584 183.270508,114.665344 184.905762,106.511131 
	C186.757248,108.928902 188.360397,111.022392 190.252350,113.729362 
	C197.540359,120.813454 202.806061,121.590179 213.689026,116.828117 
	C215.643448,115.684105 217.117126,114.562759 214.007309,112.923340 
	C213.445724,112.627289 213.242691,111.651123 212.996887,110.122475 
M126.358017,49.251034 
	C124.250145,51.568634 122.142273,53.886234 119.235115,56.055386 
	C115.556602,56.044838 111.856857,52.120480 108.588432,55.321018 
	C110.235428,58.182720 112.864967,60.621796 112.816711,63.006683 
	C112.449814,81.138107 114.582947,99.359642 111.470459,118.155327 
	C113.924080,117.862862 116.893944,118.184402 119.238251,117.123566 
	C139.749939,107.841660 144.723434,86.702431 134.063004,68.910164 
	C131.267105,64.243835 126.175598,60.952972 122.749969,56.763096 
	C126.103561,53.507511 129.457138,50.251930 133.109253,46.368595 
	C139.389297,41.259094 139.089676,34.206356 139.082397,27.082355 
	C139.077240,22.022240 136.551666,19.074211 132.329483,17.181400 
	C123.347961,13.154963 114.766937,19.912218 112.230347,26.819817 
	C111.270065,29.434841 111.591148,32.520405 111.328163,35.391491 
	C111.847221,35.556442 112.366287,35.721394 112.885345,35.886345 
	C114.559418,30.794224 118.733047,31.300364 121.979546,32.267773 
	C125.413528,33.291054 127.207283,36.538280 127.024384,40.487900 
	C126.893478,43.314720 126.987640,46.151966 126.358017,49.251034 
M369.250458,168.681381 
	C374.036835,170.461380 378.823212,172.241394 383.927734,174.139709 
	C384.688141,171.999893 385.310516,170.248428 386.188080,167.778885 
	C380.592468,165.841202 375.296478,164.007263 369.305573,162.015625 
	C368.307434,161.467972 367.309296,160.920319 365.603790,159.984573 
	C371.043854,158.105637 375.600281,156.473236 380.196991,154.963455 
	C383.676544,153.820602 383.512390,151.062744 382.638794,148.609192 
	C382.215088,147.419083 380.290863,146.539902 378.865875,145.970917 
	C374.366150,144.174164 369.781311,142.590485 365.013458,140.845337 
	C372.397522,138.116089 379.194855,135.603699 385.983154,133.094666 
	C384.147095,128.021713 383.239258,127.273422 380.243103,128.352859 
	C371.872833,131.368439 363.532349,134.466583 353.830994,138.027313 
	C355.380280,140.772644 356.161469,144.224304 358.226807,145.379044 
	C362.311340,147.662704 367.106018,148.676193 372.647614,150.570511 
	C368.204590,152.040695 364.603088,152.741821 361.514191,154.398560 
	C358.676239,155.920746 353.413605,155.437546 354.118652,160.758560 
	C354.782043,165.765137 359.612396,164.835464 363.246033,166.672577 
	C364.831146,167.062286 366.416290,167.451996 368.419189,167.994873 
	C368.419189,167.994873 368.860229,168.054077 369.250458,168.681381 
M324.798340,90.976654 
	C325.889740,89.329399 326.981140,87.682137 328.615601,85.809738 
	C329.089722,85.211304 329.563843,84.612862 330.778381,83.929520 
	C332.253571,83.303596 333.728760,82.677673 335.457703,81.944077 
	C337.663696,89.849983 339.669434,97.656570 342.035828,105.352242 
	C344.613617,113.735397 350.400574,118.888641 359.138092,119.898308 
	C366.323822,120.728661 371.450897,116.853432 375.459381,111.705887 
	C373.550568,109.898575 371.123108,108.687073 370.576050,106.899956 
	C367.739746,97.634445 365.156219,88.276138 362.910522,78.848709 
	C359.045441,62.622814 346.274414,53.760464 330.155487,56.276493 
	C325.560181,56.993782 321.372406,60.321655 316.997742,62.452404 
	C317.221863,62.882912 317.445953,63.313416 317.670074,63.743923 
	C330.217163,61.169369 332.190369,66.223885 334.501434,80.178978 
	C332.288940,80.178978 330.144745,80.178978 327.338409,80.042831 
	C326.892181,80.086754 326.445953,80.130676 325.316589,80.049110 
	C324.165161,80.676544 323.013733,81.303970 321.008575,81.996338 
	C316.750244,82.981758 312.169220,83.276070 308.295410,85.084953 
	C297.590302,90.083725 293.527863,99.555824 299.343292,110.664711 
	C303.004181,117.657951 308.890778,120.070023 316.826721,120.282425 
	C325.171844,120.505783 332.147675,118.960915 338.295197,111.822762 
	C336.269775,111.104675 334.736572,110.201157 333.135742,110.058952 
	C327.654449,109.572037 324.116089,106.128700 323.977051,100.599854 
	C323.896942,97.415695 324.051422,94.225632 324.798340,90.976654 
M438.964386,157.037170 
	C438.645935,151.701111 439.398621,146.012161 437.781586,141.103928 
	C434.611237,131.481079 426.711365,127.315231 416.845123,127.039062 
	C409.723663,126.839706 403.205261,128.384094 398.219452,134.196777 
	C394.888519,138.080185 392.285797,142.007797 392.963593,147.445068 
	C393.564484,152.265335 392.606384,157.795563 394.671265,161.812073 
	C399.192627,170.606766 406.791168,174.961060 417.407684,174.178360 
	C427.552185,173.430496 435.952026,167.775986 438.964386,157.037170 
M314.954895,160.317291 
	C313.353943,164.486130 311.752960,168.654968 310.060822,173.061203 
	C314.128143,174.464050 316.604889,175.009018 318.203186,170.001083 
	C321.599792,159.358414 325.834503,148.983215 329.936310,137.930893 
	C333.770752,148.625259 337.582947,158.766861 341.004059,169.038712 
	C342.386993,173.190796 344.265228,175.283447 349.182190,173.304855 
	C348.669769,171.288086 348.335846,169.204010 347.614868,167.263733 
	C343.592377,156.438309 339.047455,145.782867 335.580414,134.785797 
	C333.948486,129.609375 332.136536,126.841705 326.357971,128.414078 
	C322.583130,138.767731 318.799530,149.145447 314.954895,160.317291 
M234.746796,173.707199 
	C240.525543,171.060928 239.565933,165.789200 238.732956,161.360931 
	C238.007935,157.506500 234.393936,155.622513 230.353561,156.065994 
	C226.512650,156.487579 223.498016,158.205505 223.011871,162.636246 
	C222.199844,170.036804 224.727066,175.198212 234.746796,173.707199 
M294.955017,173.983902 
	C304.019806,173.923508 304.948029,172.846466 305.089661,164.156509 
	C305.150513,160.424713 303.588531,158.339005 300.454285,156.823273 
	C297.040588,155.172379 294.082611,155.828033 291.356171,158.194519 
	C286.850433,162.105392 288.155579,169.475113 294.955017,173.983902 
M103.890129,119.033684 
	C103.764999,119.132324 103.621521,119.215736 103.522003,119.335632 
	C103.466896,119.402031 103.485344,119.529480 103.470634,119.629410 
	C104.454353,119.712440 105.438072,119.795471 106.421783,119.878502 
	C106.430466,119.586517 106.439148,119.294540 106.447823,119.002563 
	C105.843018,119.002563 105.238205,119.002563 103.890129,119.033684 
z"/>
<path fill="#5C17E9" opacity="1.000000" stroke="none" 
	d="
M11.098820,10.072197 
	C11.061519,62.040344 11.024218,114.008492 10.997206,166.700500 
	C11.000602,167.599335 10.993709,167.774277 10.871216,168.240509 
	C15.173786,168.708557 19.591957,168.885300 24.103739,169.454239 
	C26.207241,170.230942 28.216818,170.949554 30.227068,170.951462 
	C92.817802,171.010498 155.408600,170.999573 217.998367,171.331116 
	C217.996857,172.105118 217.996353,172.547409 217.951004,173.318329 
	C216.937439,174.431320 215.968719,175.215668 215.000000,176.000000 
	C214.250000,176.000000 213.500000,176.000000 212.083405,175.700333 
	C210.105225,175.267105 208.793655,175.016891 207.482071,175.016739 
	C140.987259,175.009216 74.492447,175.023026 7.574968,175.023270 
	C3.796990,175.294281 3.990656,172.998184 3.991904,170.748169 
	C4.022889,114.870461 4.040137,58.992756 4.510566,3.073750 
	C8.308690,3.049822 11.656073,3.067194 14.941544,3.422192 
	C14.044312,4.532910 13.208993,5.306002 12.568334,5.898935 
	C14.521955,6.987019 16.262072,7.956189 17.775469,9.029614 
	C17.313900,9.366009 17.079050,9.598148 16.657520,9.899594 
	C16.470839,9.968902 16.072641,9.975985 16.072641,9.975985 
	C15.897782,9.948973 15.722922,9.921961 15.044812,9.612366 
	C13.393980,9.577254 12.246400,9.824725 11.098820,10.072197 
z"/>
<path fill="#5C20CF" opacity="1.000000" stroke="none" 
	d="
M1.000000,2.000000 
	C2.331808,1.666667 3.663169,1.044283 4.995491,1.042219 
	C39.463840,0.988827 73.932289,1.000000 108.400726,1.000000 
	C227.957901,1.000000 347.515076,1.000000 467.534912,1.245765 
	C467.997559,1.491531 467.993317,1.983049 467.525452,1.991761 
	C314.261902,2.003347 161.466232,2.002672 8.670568,2.050017 
	C6.784475,2.050602 4.898572,2.667027 2.980283,3.019423 
	C2.947985,3.042853 2.884515,3.091227 2.704314,3.060373 
	C2.524112,3.029519 2.157611,2.999930 2.050206,2.743070 
	C1.628534,2.324140 1.314267,2.162070 1.000000,2.000000 
z"/>
<path fill="#5B18DD" opacity="1.000000" stroke="none" 
	d="
M10.986815,167.949203 
	C10.993709,167.774277 11.000602,167.599335 11.023564,167.162231 
	C59.320652,166.933868 107.601669,166.970978 155.882690,166.999710 
	C175.029205,167.011108 194.175720,167.000458 213.322235,167.006836 
	C221.090881,167.009415 221.090881,167.017914 221.009308,175.560806 
	C220.555557,176.000000 220.111099,176.000000 219.332947,175.660553 
	C218.664795,174.543991 218.330322,173.766846 217.995865,172.989700 
	C217.996353,172.547409 217.996857,172.105118 218.246017,171.164383 
	C218.660095,170.107239 218.825500,169.548538 218.710968,168.678040 
	C216.622421,168.243195 214.813873,168.013489 213.005188,168.012573 
	C145.665741,167.978302 78.326279,167.965195 10.986815,167.949203 
z"/>
<path fill="#5C21CD" opacity="1.000000" stroke="none" 
	d="
M7.997638,175.034515 
	C74.492447,175.023026 140.987259,175.009216 207.482071,175.016739 
	C208.793655,175.016891 210.105225,175.267105 211.708405,175.700333 
	C144.312439,176.000000 76.624878,176.000000 8.468333,175.758636 
	C7.999351,175.517258 7.997638,175.034515 7.997638,175.034515 
z"/>
<path fill="#591DCB" opacity="1.000000" stroke="none" 
	d="
M7.574968,175.023270 
	C7.997638,175.034515 7.999351,175.517258 7.999676,175.758636 
	C5.666667,176.000000 3.333333,176.000000 1.209617,175.467560 
	C1.419234,174.935104 1.843451,174.938110 2.174258,174.682968 
	C2.664237,173.623688 2.962849,172.819504 2.962695,172.015396 
	C2.951884,115.707336 2.917205,59.399284 2.884515,3.091227 
	C2.884515,3.091227 2.947985,3.042853 3.242298,3.046762 
	C3.711015,3.072132 3.885419,3.093591 4.059824,3.115051 
	C4.040137,58.992756 4.022889,114.870461 3.991904,170.748169 
	C3.990656,172.998184 3.796990,175.294281 7.574968,175.023270 
z"/>
<path fill="#5720C0" opacity="1.000000" stroke="none" 
	d="
M467.993317,1.983049 
	C467.993317,1.983049 467.997559,1.491531 467.998779,1.245765 
	C469.333344,1.000000 470.666656,1.000000 472.000000,1.000000 
	C472.000000,59.333332 472.000000,117.666664 471.496582,175.531342 
	C470.997253,119.259712 471.011200,63.456730 470.962982,7.653794 
	C470.961334,5.769412 470.332733,3.885571 469.662567,2.002914 
	C468.883606,1.997250 468.438477,1.990150 467.993317,1.983049 
z"/>
<path fill="#4E2998" opacity="1.000000" stroke="none" 
	d="
M469.996338,2.001481 
	C470.332733,3.885571 470.961334,5.769412 470.962982,7.653794 
	C471.011200,63.456730 470.997253,119.259712 470.996582,175.531342 
	C471.000000,176.000000 470.500000,176.000000 470.253418,175.622055 
	C469.989502,174.488724 469.972137,173.733322 469.971680,172.511536 
	C469.973083,115.735779 469.957581,59.426403 469.959778,2.838343 
	C469.983765,2.373598 469.990051,2.187541 469.996338,2.001481 
z"/>
<path fill="#FFFFFF" opacity="1.000000" stroke="none" 
	d="
M1.843451,174.938110 
	C1.843451,174.938110 1.419234,174.935104 1.209617,174.967560 
	C1.000000,117.645775 1.000000,60.291542 1.000000,2.468657 
	C1.314267,2.162070 1.628534,2.324140 1.980839,3.206294 
	C2.013219,26.363092 2.023429,48.799824 1.998221,71.236511 
	C1.959384,105.803734 1.896268,140.370911 1.843451,174.938110 
z"/>
<path fill="#5C21CD" opacity="1.000000" stroke="none" 
	d="
M469.954803,172.977936 
	C469.972137,173.733322 469.989502,174.488724 470.003418,175.622055 
	C461.312439,176.000000 452.624878,176.000000 443.468658,176.000000 
	C443.000000,176.000000 442.984741,175.512207 443.197815,175.112427 
	C443.610901,174.138672 443.810852,173.564713 444.390625,173.064941 
	C453.185394,176.233826 461.579987,176.149918 469.954803,172.977936 
z"/>
<path fill="#5C21CD" opacity="1.000000" stroke="none" 
	d="
M217.951004,173.318329 
	C218.330322,173.766846 218.664795,174.543991 218.999634,175.660553 
	C217.933334,176.000000 216.866653,176.000000 215.399994,176.000000 
	C215.968719,175.215668 216.937439,174.431320 217.951004,173.318329 
z"/>
<path fill="#5D17EB" opacity="1.000000" stroke="none" 
	d="
M469.971680,172.511536 
	C461.579987,176.149918 453.185394,176.233826 444.386841,172.642426 
	C443.723145,169.344101 445.377380,168.932312 447.672638,168.972946 
	C452.435028,169.057251 457.200165,168.988037 462.292236,168.946777 
	C463.072601,168.258820 463.524872,167.606003 463.995544,166.489426 
	C464.010040,115.781982 464.017059,65.538284 463.963226,15.294658 
	C463.960999,13.226434 463.387543,11.158823 462.803284,9.067786 
	C462.341156,9.039096 462.155975,9.033545 461.503998,9.021633 
	C384.693665,9.031512 308.350128,9.047751 231.537827,9.038950 
	C204.263000,9.009721 177.456894,8.991214 150.650925,9.037221 
	C149.056992,9.039957 147.463928,9.560167 145.677734,9.905043 
	C145.485016,9.970506 145.078125,9.983664 145.078125,9.983664 
	C144.901733,9.951263 144.725357,9.918863 143.951080,9.577538 
	C136.934982,9.181539 130.515442,8.974094 124.099014,9.045819 
	C119.048431,9.102278 114.001686,9.503012 108.953239,9.750824 
	C108.783524,9.796840 108.613800,9.842856 107.980728,9.927458 
	C107.517372,9.966044 107.132912,9.834148 106.791367,9.577531 
	C104.630333,9.214105 102.810989,9.016954 100.991341,9.014026 
	C73.328316,8.969501 45.665245,8.950402 18.002188,8.925360 
	C16.262072,7.956189 14.521955,6.987019 12.568334,5.898935 
	C13.208993,5.306002 14.044312,4.532910 15.408939,3.387905 
	C160.947891,3.013290 305.957520,3.009211 450.967163,3.012526 
	C457.292145,3.012670 463.617126,3.080649 469.942108,3.117030 
	C469.957581,59.426403 469.973083,115.735779 469.971680,172.511536 
z"/>
<path fill="#5C17E8" opacity="1.000000" stroke="none" 
	d="
M95.999901,117.829910 
	C91.273994,116.291641 86.548088,114.753380 81.724197,113.183220 
	C78.659637,119.661659 82.787605,126.386719 91.045448,125.874954 
	C100.163528,125.309875 109.181000,123.252731 118.295670,122.456688 
	C124.750458,121.892937 131.491119,120.333244 137.653687,123.957756 
	C141.421799,126.173965 143.941299,129.179840 144.557419,133.878098 
	C145.538406,141.358841 145.463760,148.422516 139.819305,154.247269 
	C139.026535,155.065369 137.850418,155.512009 136.605759,156.282959 
	C135.309402,147.095688 132.671280,145.825577 123.893387,147.439438 
	C113.133728,149.417633 102.224968,150.616516 91.355339,151.944992 
	C88.225342,152.327545 85.002419,152.114609 81.831787,151.966812 
	C74.292534,151.615372 68.165321,144.942703 66.836380,137.700760 
	C64.603722,125.534012 71.539894,118.591156 79.849174,112.072380 
	C80.300385,111.718414 80.619171,111.195656 81.277710,110.255470 
	C82.750099,109.000946 83.944382,108.242424 85.465126,107.276566 
	C85.868126,109.214027 86.202400,110.821129 86.648834,112.967430 
	C87.749306,111.452370 88.454964,110.480873 89.556686,108.964096 
	C89.930115,111.365181 90.174362,112.935593 90.495239,114.998779 
	C92.467194,114.998779 94.233444,114.998779 95.999847,114.999390 
	C96.000000,115.000000 96.000793,115.000198 96.000458,115.354080 
	C96.000046,116.415276 95.999969,117.122597 95.999901,117.829910 
z"/>
<path fill="#5D17EB" opacity="1.000000" stroke="none" 
	d="
M60.966080,40.989555 
	C60.962391,42.694393 60.958698,44.399231 60.685631,46.554832 
	C60.416248,47.005600 60.020737,47.084503 59.997795,46.776035 
	C59.647045,45.982159 59.319237,45.496746 58.691833,45.301857 
	C58.269810,46.071125 58.040802,46.549763 58.040279,47.028648 
	C58.016602,68.842903 58.006207,90.657181 58.048885,112.471352 
	C58.049866,112.972336 58.676785,113.472092 59.301453,113.715988 
	C59.732162,111.615051 59.873150,109.770546 60.209927,107.955269 
	C60.405712,107.984505 60.794437,108.059608 60.794437,108.059608 
	C60.794437,111.641457 60.794437,115.223305 60.794437,119.406265 
	C51.749741,119.406265 42.107018,119.406265 33.042713,119.406265 
	C33.042713,93.998131 33.042713,68.460747 33.036217,42.454369 
	C33.029716,41.985371 33.040897,41.974857 33.426491,41.820362 
	C42.863415,41.440430 51.914745,41.214993 60.966080,40.989555 
z"/>
<path fill="#5D17EA" opacity="1.000000" stroke="none" 
	d="
M264.919525,66.957268 
	C264.969299,59.958862 265.019073,52.960453 265.329529,45.241875 
	C265.900208,41.752106 267.282898,40.815243 270.190369,40.917671 
	C277.477509,41.174400 284.779205,41.019604 292.243347,41.031723 
	C292.411652,41.033569 292.748199,41.026638 292.748199,41.026638 
	C292.539459,41.804764 292.330688,42.582886 291.739929,43.560936 
	C290.914429,44.190453 290.470886,44.620049 290.018616,45.513180 
	C290.006470,66.687454 289.983582,87.398247 290.045685,108.108780 
	C290.049622,109.421608 290.714111,110.732452 291.259521,112.039764 
	C291.447662,112.035301 291.824066,112.030075 291.824066,112.030075 
	C293.951782,116.962532 292.442291,119.637962 287.347504,119.964310 
	C276.831146,120.637924 270.647003,117.515656 267.335449,109.099533 
	C267.313904,105.809410 270.297638,102.100243 265.134033,100.520653 
	C265.009521,91.049461 264.946625,82.042526 265.185638,72.805283 
	C265.298187,70.702393 265.108856,68.829834 264.919525,66.957268 
z"/>
<path fill="#5D18E9" opacity="1.000000" stroke="none" 
	d="
M257.766449,60.511620 
	C257.901947,60.385437 258.037476,60.259254 258.218079,60.596516 
	C258.725159,62.317303 259.187164,63.574646 259.687866,64.937271 
	C258.255035,65.664246 257.115936,66.242203 255.656036,66.979019 
	C248.347733,69.734306 246.712387,76.020523 245.374725,82.217949 
	C242.857346,93.881157 248.812088,109.238480 263.026337,107.017258 
	C263.033966,106.990936 262.989349,106.959442 262.989349,106.959442 
	C261.369293,110.456238 260.320709,114.057259 256.364349,116.222420 
	C244.469467,122.732002 231.146622,119.014786 223.781540,106.868874 
	C217.380966,96.313538 217.796585,85.529572 220.268311,74.878906 
	C222.493988,65.288513 228.709488,57.595272 238.959518,54.572075 
	C244.408524,52.964928 249.628860,54.229172 254.664917,56.824646 
	C255.272202,57.693928 255.932190,58.044376 256.592194,58.394821 
	C256.658813,58.549099 256.725403,58.703381 256.612732,59.438179 
	C256.877777,60.183006 257.322113,60.347313 257.766449,60.511620 
z"/>
<path fill="#5D19E7" opacity="1.000000" stroke="none" 
	d="
M328.000549,80.178970 
	C330.144745,80.178978 332.288940,80.178978 334.501434,80.178978 
	C332.190369,66.223885 330.217163,61.169369 317.670074,63.743923 
	C317.445953,63.313416 317.221863,62.882912 316.997742,62.452404 
	C321.372406,60.321655 325.560181,56.993782 330.155487,56.276493 
	C346.274414,53.760464 359.045441,62.622814 362.910522,78.848709 
	C365.156219,88.276138 367.739746,97.634445 370.576050,106.899956 
	C371.123108,108.687073 373.550568,109.898575 375.459381,111.705887 
	C371.450897,116.853432 366.323822,120.728661 359.138092,119.898308 
	C350.400574,118.888641 344.613617,113.735397 342.035828,105.352242 
	C339.669434,97.656570 337.663696,89.849983 335.457703,81.944077 
	C333.728760,82.677673 332.253571,83.303596 330.056854,83.911942 
	C328.890411,82.655899 328.445496,81.417435 328.000549,80.178970 
z"/>
<path fill="#5C17E9" opacity="1.000000" stroke="none" 
	d="
M171.829224,105.017616 
	C175.032288,109.880646 180.668808,109.292671 185.422424,103.340683 
	C187.050369,104.177734 188.147720,105.329102 189.283279,106.520569 
	C190.420837,105.715523 191.633408,104.857368 192.845993,103.999222 
	C193.306198,104.280670 193.766403,104.562119 194.226593,104.843559 
	C193.541550,106.218102 192.871033,107.600128 192.167419,108.965111 
	C191.449738,110.357430 190.699524,111.732986 189.963562,113.115883 
	C188.360397,111.022392 186.757248,108.928902 184.905762,106.511131 
	C183.270508,114.665344 170.925446,123.715584 158.601837,118.260536 
	C150.883682,114.844086 144.440430,105.836838 144.883514,97.536301 
	C145.468307,86.581284 145.112183,75.570663 144.981369,64.586075 
	C144.941406,61.230240 144.311630,57.881424 143.921539,54.245880 
	C153.787811,54.245880 163.061234,54.245880 172.993027,54.245880 
	C172.728897,55.655289 172.485992,56.951378 171.796967,58.396935 
	C170.529861,58.049999 169.708878,57.553596 167.773315,56.383259 
	C168.975281,58.873451 169.497543,59.955441 170.013901,61.502258 
	C170.004272,75.162003 169.992065,88.356926 170.008987,101.551826 
	C170.010834,102.992378 170.180389,104.432716 170.272156,105.873154 
	C170.483337,105.743874 170.724792,105.644592 170.894043,105.473755 
	C170.990921,105.375977 170.970383,105.161858 171.209335,105.004799 
	C171.415955,105.009476 171.829224,105.017616 171.829224,105.017616 
z"/>
<path fill="#5D17EA" opacity="1.000000" stroke="none" 
	d="
M190.107956,113.422623 
	C190.699524,111.732986 191.449738,110.357430 192.167419,108.965111 
	C192.871033,107.600128 193.541550,106.218102 194.226593,104.843559 
	C193.766403,104.562119 193.306198,104.280670 192.845993,103.999222 
	C191.633408,104.857368 190.420837,105.715523 189.283279,106.520569 
	C188.147720,105.329102 187.050369,104.177734 185.593384,103.013298 
	C185.233749,86.928215 185.233749,70.856201 185.233749,54.401630 
	C193.591324,54.401630 202.969559,54.401630 212.763351,54.401630 
	C212.828079,55.595078 212.896835,56.862564 212.590515,58.564518 
	C211.798523,59.004448 211.381592,59.009911 210.670242,59.309822 
	C210.250809,73.890778 210.159378,88.177696 209.982925,102.463570 
	C209.919571,107.592537 209.631180,112.723190 213.066086,117.094528 
	C202.806061,121.590179 197.540359,120.813454 190.107956,113.422623 
z"/>
<path fill="#5D17EB" opacity="1.000000" stroke="none" 
	d="
M401.024231,119.846497 
	C393.255524,119.846497 385.486786,119.846497 377.061768,119.846497 
	C377.410431,118.351517 377.708282,117.074295 378.291840,115.403214 
	C378.577515,115.009361 378.980804,115.007187 379.050354,115.291046 
	C379.350433,115.652603 379.580994,115.730301 379.811554,115.807991 
	C379.867920,115.504234 379.973358,115.200531 379.973663,114.896721 
	C379.990723,97.855621 379.936127,80.813919 380.097443,63.774246 
	C380.115204,61.897289 381.364899,60.031994 382.043213,58.161293 
	C386.393646,58.783604 390.744110,59.405914 395.554993,60.424664 
	C396.701935,61.170162 397.660431,61.993782 398.026581,61.783897 
	C399.411987,60.989861 400.605225,59.860584 401.870361,58.856735 
	C402.264832,59.331009 402.659332,59.805283 403.053833,60.279560 
	C401.794342,61.479061 400.685028,62.913708 399.246277,63.832432 
	C395.465271,66.246773 394.920258,68.268013 396.913696,71.646156 
	C398.497162,69.210022 400.287750,66.455254 402.078308,63.700493 
	C402.719696,63.935528 403.361053,64.170563 404.002441,64.405602 
	C404.002441,66.376350 404.164917,68.364288 403.958740,70.313225 
	C403.733521,72.442032 402.826477,74.531471 402.806091,76.643761 
	C402.694672,88.192772 402.811188,99.743904 402.719879,111.293297 
	C402.706757,112.955765 401.992767,114.612686 401.489502,116.755981 
	C401.624939,116.829430 402.640778,117.380440 403.887268,118.056541 
	C402.660492,118.823509 401.842346,119.334999 401.024231,119.846497 
z"/>
<path fill="#5C17E8" opacity="1.000000" stroke="none" 
	d="
M122.138336,57.030437 
	C126.175598,60.952972 131.267105,64.243835 134.063004,68.910164 
	C144.723434,86.702431 139.749939,107.841660 119.238251,117.123566 
	C116.893944,118.184402 113.924080,117.862862 111.470459,118.155327 
	C114.582947,99.359642 112.449814,81.138107 112.816711,63.006683 
	C112.864967,60.621796 110.235428,58.182720 108.588432,55.321018 
	C111.856857,52.120480 115.556602,56.044838 119.834106,56.345787 
	C121.001503,56.767605 121.569923,56.899021 122.138336,57.030437 
z"/>
<path fill="#5C17E9" opacity="1.000000" stroke="none" 
	d="
M95.999695,114.998779 
	C94.233444,114.998779 92.467194,114.998779 90.495239,114.998779 
	C90.174362,112.935593 89.930115,111.365181 89.556686,108.964096 
	C88.454964,110.480873 87.749306,111.452370 86.648834,112.967430 
	C86.202400,110.821129 85.868126,109.214027 85.465126,107.276566 
	C83.944382,108.242424 82.750099,109.000946 81.241425,109.895462 
	C67.886940,99.303627 66.727768,77.987320 79.209267,65.376839 
	C81.744583,62.815327 84.633560,60.603859 87.958748,58.443176 
	C90.039528,58.104477 91.521057,57.553612 93.397461,57.008614 
	C95.216461,57.379051 96.640594,57.743626 98.064728,58.108200 
	C98.033638,58.524445 98.002548,58.940693 97.589539,59.559654 
	C96.806450,61.107700 96.062790,62.451366 96.056252,63.798611 
	C95.976646,80.194519 96.005455,96.590958 96.001778,113.322670 
	C95.998192,114.104988 95.998940,114.551880 95.999695,114.998779 
z"/>
<path fill="#5D18E7" opacity="1.000000" stroke="none" 
	d="
M327.669495,80.110901 
	C328.445496,81.417435 328.890411,82.655899 329.686646,83.954391 
	C329.563843,84.612862 329.089722,85.211304 328.062531,85.822929 
	C325.931122,86.988281 324.352783,88.140442 322.774445,89.292603 
	C323.216400,89.874481 323.658356,90.456360 324.100342,91.038239 
	C324.051422,94.225632 323.896942,97.415695 323.977051,100.599854 
	C324.116089,106.128700 327.654449,109.572037 333.135742,110.058952 
	C334.736572,110.201157 336.269775,111.104675 338.295197,111.822762 
	C332.147675,118.960915 325.171844,120.505783 316.826721,120.282425 
	C308.890778,120.070023 303.004181,117.657951 299.343292,110.664711 
	C293.527863,99.555824 297.590302,90.083725 308.295410,85.084953 
	C312.169220,83.276070 316.750244,82.981758 321.738831,82.090225 
	C323.645935,81.514282 324.822845,80.844444 325.999725,80.174606 
	C326.445953,80.130676 326.892181,80.086754 327.669495,80.110901 
z"/>
<path fill="#5D1BE4" opacity="1.000000" stroke="none" 
	d="
M438.967041,157.474670 
	C435.952026,167.775986 427.552185,173.430496 417.407684,174.178360 
	C406.791168,174.961060 399.192627,170.606766 394.671265,161.812073 
	C392.606384,157.795563 393.564484,152.265335 392.963593,147.445068 
	C392.285797,142.007797 394.888519,138.080185 398.219452,134.196777 
	C403.205261,128.384094 409.723663,126.839706 416.845123,127.039062 
	C426.711365,127.315231 434.611237,131.481079 437.781586,141.103928 
	C439.398621,146.012161 438.645935,151.701111 438.967041,157.474670 
M402.967224,138.533936 
	C396.603149,145.809998 396.119843,158.034821 405.331085,164.873215 
	C410.661346,168.830399 422.162140,170.327972 429.435608,162.132736 
	C435.009674,155.852280 435.092163,143.811005 428.635620,138.184677 
	C419.220276,129.980011 413.286591,129.407684 402.967224,138.533936 
z"/>
<path fill="#5D1CE3" opacity="1.000000" stroke="none" 
	d="
M362.893677,166.039780 
	C359.612396,164.835464 354.782043,165.765137 354.118652,160.758560 
	C353.413605,155.437546 358.676239,155.920746 361.514191,154.398560 
	C364.603088,152.741821 368.204590,152.040695 372.647614,150.570511 
	C367.106018,148.676193 362.311340,147.662704 358.226807,145.379044 
	C356.161469,144.224304 355.380280,140.772644 353.830994,138.027313 
	C363.532349,134.466583 371.872833,131.368439 380.243103,128.352859 
	C383.239258,127.273422 384.147095,128.021713 385.983154,133.094666 
	C379.194855,135.603699 372.397522,138.116089 365.013458,140.845337 
	C369.781311,142.590485 374.366150,144.174164 378.865875,145.970917 
	C380.290863,146.539902 382.215088,147.419083 382.638794,148.609192 
	C383.512390,151.062744 383.676544,153.820602 380.196991,154.963455 
	C375.600281,156.473236 371.043854,158.105637 365.603790,159.984573 
	C367.309296,160.920319 368.307434,161.467972 369.726868,162.442780 
	C371.914795,164.245956 373.512909,165.981644 375.490173,166.908188 
	C378.037170,168.101730 380.887939,168.646988 383.607849,169.471466 
	C383.461121,169.981522 383.314423,170.491577 383.167725,171.001617 
	C378.398560,170.019104 373.629395,169.036591 368.860229,168.054077 
	C368.860229,168.054077 368.419189,167.994873 368.201355,167.568085 
	C367.069977,163.155655 364.427094,167.161041 362.893677,166.039780 
z"/>
<path fill="#5D1BE3" opacity="1.000000" stroke="none" 
	d="
M314.985413,159.920227 
	C318.799530,149.145447 322.583130,138.767731 326.357971,128.414078 
	C332.136536,126.841705 333.948486,129.609375 335.580414,134.785797 
	C339.047455,145.782867 343.592377,156.438309 347.614868,167.263733 
	C348.335846,169.204010 348.669769,171.288086 349.182190,173.304855 
	C344.265228,175.283447 342.386993,173.190796 341.004059,169.038712 
	C337.582947,158.766861 333.770752,148.625259 329.936310,137.930893 
	C325.834503,148.983215 321.599792,159.358414 318.203186,170.001083 
	C316.604889,175.009018 314.128143,174.464050 310.060822,173.061203 
	C311.752960,168.654968 313.353943,164.486130 314.985413,159.920227 
z"/>
<path fill="#5C18E7" opacity="1.000000" stroke="none" 
	d="
M126.981384,48.984558 
	C126.987640,46.151966 126.893478,43.314720 127.024384,40.487900 
	C127.207283,36.538280 125.413528,33.291054 121.979546,32.267773 
	C118.733047,31.300364 114.559418,30.794224 112.885345,35.886345 
	C112.366287,35.721394 111.847221,35.556442 111.328163,35.391491 
	C111.591148,32.520405 111.270065,29.434841 112.230347,26.819817 
	C114.766937,19.912218 123.347961,13.154963 132.329483,17.181400 
	C136.551666,19.074211 139.077240,22.022240 139.082397,27.082355 
	C139.089676,34.206356 139.389297,41.259094 132.602051,46.696182 
	C130.390350,47.677361 128.685867,48.330959 126.981384,48.984558 
z"/>
<path fill="#5D1BE5" opacity="1.000000" stroke="none" 
	d="
M268.839264,162.046555 
	C267.249695,160.368622 265.660126,158.690689 263.773254,156.698944 
	C261.048859,161.073288 258.405090,165.108963 255.980942,169.272491 
	C253.802277,173.014374 251.114120,175.298035 245.719162,173.355499 
	C249.973953,166.577408 254.165787,159.899658 258.773193,153.231308 
	C259.325714,153.259186 259.462677,153.277679 259.599609,153.296173 
	C259.469543,153.067551 259.339447,152.838928 259.209381,152.610306 
	C259.209381,152.610306 259.341736,152.388153 259.723938,152.518402 
	C260.598480,152.426254 261.090790,152.203842 261.583099,151.981430 
	C261.106750,151.653320 260.630432,151.325195 260.154083,150.997086 
	C260.100311,150.582260 260.046509,150.167435 259.986450,149.037842 
	C259.413666,144.072357 258.563263,140.034790 253.244156,139.352997 
	C251.226105,136.134644 249.208054,132.916290 247.718872,129.357300 
	C256.398590,129.002441 264.550812,128.898987 272.699524,129.023575 
	C275.461456,129.065811 278.214600,129.684265 280.971741,130.039413 
	C277.028015,136.149536 273.084290,142.259674 268.581573,148.684296 
	C266.682343,148.994965 265.342133,148.991150 264.055054,148.642273 
	C265.188293,145.737961 269.658691,144.585175 267.356934,140.520035 
	C267.412506,140.440109 267.545410,140.297821 267.912933,140.482391 
	C268.835846,139.402283 269.391205,138.137589 269.976929,136.506500 
	C269.660553,135.428192 269.340485,134.114685 268.962952,134.097946 
	C265.411377,133.940399 261.849945,134.004349 257.613983,134.004349 
	C258.651764,136.066574 259.353912,137.461868 260.041687,139.263885 
	C261.347351,142.780304 262.667419,145.890015 263.992310,149.379303 
	C264.527466,150.779037 265.057831,151.799179 265.588226,152.819321 
	C268.236847,150.861740 268.074432,153.612106 268.702789,154.767181 
	C270.094604,157.325607 271.342072,159.962540 272.798065,162.865845 
	C271.796204,162.658508 270.317749,162.352524 268.839264,162.046555 
z"/>
<path fill="#5E1FDD" opacity="1.000000" stroke="none" 
	d="
M401.450073,119.915527 
	C401.842346,119.334999 402.660492,118.823509 403.887268,118.056541 
	C402.640778,117.380440 401.624939,116.829430 401.489502,116.755981 
	C401.992767,114.612686 402.706757,112.955765 402.719879,111.293297 
	C402.811188,99.743904 402.694672,88.192772 402.806091,76.643761 
	C402.826477,74.531471 403.733521,72.442032 403.958740,70.313225 
	C404.164917,68.364288 404.002441,66.376350 404.002441,64.405602 
	C403.361053,64.170563 402.719696,63.935528 402.078308,63.700493 
	C400.287750,66.455254 398.497162,69.210022 396.913696,71.646156 
	C394.920258,68.268013 395.465271,66.246773 399.246277,63.832432 
	C400.685028,62.913708 401.794342,61.479061 403.053833,60.279560 
	C402.659332,59.805283 402.264832,59.331009 401.870361,58.856735 
	C400.605225,59.860584 399.411987,60.989861 398.026581,61.783897 
	C397.660431,61.993782 396.701935,61.170162 396.006134,60.490967 
	C398.784637,58.706005 401.572388,57.251175 404.845490,55.543064 
	C404.845490,59.283207 404.845490,62.219975 404.845490,65.462334 
	C407.183044,63.195621 409.258270,61.183258 411.687927,59.317162 
	C415.342072,61.644608 414.198059,58.147919 415.005371,57.144493 
	C415.443726,57.102715 415.882080,57.060940 416.547760,57.352989 
	C418.023407,58.118919 419.271729,58.551022 420.520050,58.983120 
	C420.687195,58.359947 420.854370,57.736774 421.021545,57.113602 
	C426.327118,57.766186 431.539429,62.343460 432.009857,67.328308 
	C432.136108,68.665970 430.985016,70.838295 429.805511,71.458763 
	C425.234222,73.863525 420.414886,75.796860 415.690460,77.904617 
	C414.763611,75.172035 414.232178,72.376678 412.862000,70.082176 
	C412.173279,68.928856 409.964233,68.231033 408.434601,68.217117 
	C407.631989,68.209808 406.125488,70.109154 406.105499,71.169502 
	C405.897797,82.191010 405.922913,93.216972 405.894257,104.241722 
	C405.881104,109.305351 405.892029,114.369049 405.892029,119.984566 
	C405.097076,119.984566 403.486511,119.984566 401.450073,119.915527 
z"/>
<path fill="#5D1BE3" opacity="1.000000" stroke="none" 
	d="
M234.342407,173.825623 
	C224.727066,175.198212 222.199844,170.036804 223.011871,162.636246 
	C223.498016,158.205505 226.512650,156.487579 230.353561,156.065994 
	C234.393936,155.622513 238.007935,157.506500 238.732956,161.360931 
	C239.565933,165.789200 240.525543,171.060928 234.342407,173.825623 
z"/>
<path fill="#6740AD" opacity="1.000000" stroke="none" 
	d="
M232.006592,9.063991 
	C308.350128,9.047751 384.693665,9.031512 461.512970,9.362876 
	C461.964050,10.165018 461.939331,10.619556 461.914612,11.074094 
	C461.168304,11.031943 460.422028,10.989795 458.993591,10.619284 
	C457.158813,10.189971 456.006104,10.000827 454.853424,10.000772 
	C407.238129,9.998498 359.622803,10.013197 311.538086,10.015993 
	C284.683624,10.017339 258.298584,10.028450 231.948242,10.021811 
	C231.982986,10.004059 231.953049,10.076104 231.965881,9.823047 
	C231.988022,9.401323 231.997299,9.232656 232.006592,9.063991 
z"/>
<path fill="#5E1AE7" opacity="1.000000" stroke="none" 
	d="
M294.540009,173.975800 
	C288.155579,169.475113 286.850433,162.105392 291.356171,158.194519 
	C294.082611,155.828033 297.040588,155.172379 300.454285,156.823273 
	C303.588531,158.339005 305.150513,160.424713 305.089661,164.156509 
	C304.948029,172.846466 304.019806,173.923508 294.540009,173.975800 
M297.938202,162.548553 
	C294.106750,164.201019 293.983551,165.156708 298.487762,168.918442 
	C298.487762,166.337158 298.487762,164.665756 297.938202,162.548553 
M293.531525,164.736511 
	C293.402344,165.136246 293.251465,165.531219 293.162170,165.939682 
	C293.144165,166.021896 293.359863,166.155182 293.467804,166.264908 
	C293.596893,165.865204 293.726013,165.465500 293.531525,164.736511 
z"/>
<path fill="#5A1DD3" opacity="1.000000" stroke="none" 
	d="
M461.948914,11.537931 
	C461.939331,10.619556 461.964050,10.165018 461.979767,9.369238 
	C462.155975,9.033545 462.341156,9.039096 462.782471,9.526024 
	C463.025909,60.765934 463.004486,111.524475 463.041565,162.282974 
	C463.042694,163.839935 463.651581,165.396454 463.977142,166.953186 
	C463.524872,167.606003 463.072601,168.258820 462.006897,168.647491 
	C455.240723,168.249741 449.088043,168.116165 442.935333,167.982574 
	C446.957092,167.650818 450.975250,167.261551 455.002045,167.010757 
	C457.128265,166.878357 459.269501,166.987320 461.983246,166.987320 
	C461.983246,115.072975 461.983246,63.537373 461.948914,11.537931 
z"/>
<path fill="#6A23D6" opacity="1.000000" stroke="none" 
	d="
M312.007507,10.025760 
	C359.622803,10.013197 407.238129,9.998498 454.853424,10.000772 
	C456.006104,10.000827 457.158813,10.189971 458.625549,10.553329 
	C439.841492,10.881059 420.743378,10.986210 401.645233,11.002487 
	C372.078247,11.027686 342.511200,10.992214 312.476379,10.708101 
	C312.008575,10.433734 312.007507,10.025760 312.007507,10.025760 
z"/>
<path fill="#5D1BE3" opacity="1.000000" stroke="none" 
	d="
M268.919464,162.401581 
	C270.317749,162.352524 271.796204,162.658508 272.798065,162.865845 
	C271.342072,159.962540 270.094604,157.325607 268.702789,154.767181 
	C268.074432,153.612106 268.236847,150.861740 265.588226,152.819321 
	C265.057831,151.799179 264.527466,150.779037 263.998444,149.379211 
	C263.999786,148.999527 264.001892,148.987335 264.001892,148.987335 
	C265.342133,148.991150 266.682343,148.994965 268.424316,148.997864 
	C270.497253,152.445053 271.952423,156.020493 273.891754,159.310532 
	C276.590302,163.888519 279.651550,168.252731 282.766296,173.028564 
	C278.104858,175.080383 275.283051,173.749176 273.232117,170.468811 
	C271.680084,167.986374 270.400513,165.333588 268.919464,162.401581 
z"/>
<path fill="#FFFFFF" opacity="1.000000" stroke="none" 
	d="
M107.132912,9.834148 
	C107.132912,9.834148 107.517372,9.966044 107.720490,9.970467 
	C107.304268,10.315610 106.684822,10.954482 106.065605,10.954256 
	C76.157433,10.943354 46.249283,10.877313 16.206886,10.396714 
	C16.072641,9.975985 16.470839,9.968902 17.139809,9.970093 
	C47.583488,9.925572 77.358200,9.879861 107.132912,9.834148 
z"/>
<path fill="#FFFFFF" opacity="1.000000" stroke="none" 
	d="
M145.212967,10.403214 
	C145.078125,9.983664 145.485016,9.970506 146.157471,9.975329 
	C175.204315,10.012136 203.578674,10.044120 231.953049,10.076104 
	C231.953049,10.076104 231.982986,10.004059 231.984436,10.230099 
	C231.985870,10.456140 231.956238,10.877876 231.956238,10.877876 
	C203.086761,10.859506 174.217285,10.841135 145.212967,10.403214 
z"/>
<path fill="#6120C0" opacity="1.000000" stroke="none" 
	d="
M232.422897,10.939322 
	C231.956238,10.877876 231.985870,10.456140 231.949692,10.247850 
	C258.298584,10.028450 284.683624,10.017339 311.538086,10.015993 
	C312.007507,10.025760 312.008575,10.433734 312.013672,10.637646 
	C285.642334,10.894628 259.265961,10.947697 232.422897,10.939322 
z"/>
<path fill="#5F1CE1" opacity="1.000000" stroke="none" 
	d="
M369.055359,168.367737 
	C373.629395,169.036591 378.398560,170.019104 383.167725,171.001617 
	C383.314423,170.491577 383.461121,169.981522 383.607849,169.471466 
	C380.887939,168.646988 378.037170,168.101730 375.490173,166.908188 
	C373.512909,165.981644 371.914795,164.245956 370.074310,162.521637 
	C375.296478,164.007263 380.592468,165.841202 386.188080,167.778885 
	C385.310516,170.248428 384.688141,171.999893 383.927734,174.139709 
	C378.823212,172.241394 374.036835,170.461380 369.055359,168.367737 
z"/>
<path fill="#591DCB" opacity="1.000000" stroke="none" 
	d="
M291.896881,111.564194 
	C291.824066,112.030075 291.447662,112.035301 291.234650,111.566917 
	C291.016693,90.805901 291.035400,70.513176 290.964386,50.220776 
	C290.958344,48.495991 290.353851,46.773304 290.027374,45.049644 
	C290.470886,44.620049 290.914429,44.190453 291.598633,43.853954 
	C291.882751,66.330803 291.926208,88.714561 291.896881,111.564194 
z"/>
<path fill="#5720C5" opacity="1.000000" stroke="none" 
	d="
M213.377563,116.961319 
	C209.631180,112.723190 209.919571,107.592537 209.982925,102.463570 
	C210.159378,88.177696 210.250809,73.890778 210.680145,59.776703 
	C210.986938,75.946335 210.955048,91.943779 211.072601,107.940125 
	C211.080093,108.960762 212.246719,109.972878 212.874130,110.988953 
	C213.242691,111.651123 213.445724,112.627289 214.007309,112.923340 
	C217.117126,114.562759 215.643448,115.684105 213.377563,116.961319 
z"/>
<path fill="#502B9E" opacity="1.000000" stroke="none" 
	d="
M381.782959,58.029316 
	C381.364899,60.031994 380.115204,61.897289 380.097443,63.774246 
	C379.936127,80.813919 379.990723,97.855621 379.973663,114.896721 
	C379.973358,115.200531 379.867920,115.504234 379.811554,115.807991 
	C379.580994,115.730301 379.350433,115.652603 379.058655,114.821671 
	C378.989899,95.005875 378.982422,75.943306 378.974945,56.880737 
	C379.824188,57.219608 380.673462,57.558475 381.782959,58.029316 
z"/>
<path fill="#FFFFFF" opacity="1.000000" stroke="none" 
	d="
M60.889763,107.592598 
	C60.794437,108.059608 60.405712,107.984505 60.201073,107.491829 
	C60.004536,87.027603 60.012638,67.056053 60.020737,47.084503 
	C60.020737,47.084503 60.416248,47.005600 60.615421,46.974991 
	C60.871426,67.004784 60.928257,87.065186 60.889763,107.592598 
z"/>
<path fill="#6F23ED" opacity="1.000000" stroke="none" 
	d="
M212.935516,110.555710 
	C212.246719,109.972878 211.080093,108.960762 211.072601,107.940125 
	C210.955048,91.943779 210.986938,75.946335 210.974548,59.482254 
	C211.381592,59.009911 211.798523,59.004448 212.527847,58.999722 
	C212.558487,66.524239 212.013779,74.049683 212.061188,81.571388 
	C212.121170,91.090012 212.662918,100.605583 212.935516,110.555710 
z"/>
<path fill="#5A20D6" opacity="1.000000" stroke="none" 
	d="
M378.620728,57.136513 
	C378.982422,75.943306 378.989899,95.005875 378.989105,114.537811 
	C378.980804,115.007187 378.577515,115.009361 378.375854,115.010559 
	C378.204987,95.805275 378.235779,76.598785 378.620728,57.136513 
z"/>
<path fill="#5D34B6" opacity="1.000000" stroke="none" 
	d="
M96.006111,112.987251 
	C96.005455,96.590958 95.976646,80.194519 96.056252,63.798611 
	C96.062790,62.451366 96.806450,61.107700 97.519302,59.864796 
	C97.858856,60.738426 97.886719,61.509640 97.527397,62.904858 
	C97.109962,72.992485 97.079712,82.456108 97.035645,92.392754 
	C96.683266,99.572937 96.344688,106.280098 96.006111,112.987251 
z"/>
<path fill="#5A20CD" opacity="1.000000" stroke="none" 
	d="
M170.019806,61.037430 
	C169.497543,59.955441 168.975281,58.873451 167.773315,56.383259 
	C169.708878,57.553596 170.529861,58.049999 171.595184,58.745575 
	C171.883759,73.992432 171.927979,89.040108 171.900726,104.552704 
	C171.829224,105.017616 171.415955,105.009476 171.199875,104.536201 
	C170.990402,91.274826 171.030579,78.486534 170.960098,65.698853 
	C170.951538,64.143372 170.347733,62.591160 170.019806,61.037430 
z"/>
<path fill="#571CD2" opacity="1.000000" stroke="none" 
	d="
M255.976822,66.820160 
	C257.115936,66.242203 258.255035,65.664246 259.687866,64.937271 
	C259.187164,63.574646 258.725159,62.317303 258.473938,60.704697 
	C260.554718,62.457397 262.424744,64.565369 264.607117,66.815308 
	C265.108856,68.829834 265.298187,70.702393 264.865173,72.642609 
	C263.511566,67.906380 260.214508,66.703239 255.976822,66.820160 
z"/>
<path fill="#5720C5" opacity="1.000000" stroke="none" 
	d="
M126.669708,49.117794 
	C128.685867,48.330959 130.390350,47.677361 132.452789,47.010056 
	C129.457138,50.251930 126.103561,53.507511 122.444153,56.896767 
	C121.569923,56.899021 121.001503,56.767605 120.233749,56.420013 
	C122.142273,53.886234 124.250145,51.568634 126.669708,49.117794 
z"/>
<path fill="#4E2998" opacity="1.000000" stroke="none" 
	d="
M281.262756,129.907074 
	C278.214600,129.684265 275.461456,129.065811 272.699524,129.023575 
	C264.550812,128.898987 256.398590,129.002441 247.806702,129.012054 
	C247.167343,128.741653 246.969009,128.475861 247.429092,128.104935 
	C259.338898,127.988602 270.590271,127.977394 281.841675,127.966194 
	C281.745697,128.569046 281.649750,129.171906 281.262756,129.907074 
z"/>
<path fill="#5328AB" opacity="1.000000" stroke="none" 
	d="
M292.075043,41.029873 
	C284.779205,41.019604 277.477509,41.174400 270.190369,40.917671 
	C267.282898,40.815243 265.900208,41.752106 265.293518,44.776413 
	C264.441467,43.467319 263.886139,41.903511 264.073273,40.160553 
	C271.219452,39.986610 277.625549,39.893383 284.025879,40.043823 
	C286.715149,40.107033 289.392365,40.685593 292.075043,41.029873 
z"/>
<path fill="#5B2EB0" opacity="1.000000" stroke="none" 
	d="
M109.417786,9.847729 
	C114.001686,9.503012 119.048431,9.102278 124.099014,9.045819 
	C130.515442,8.974094 136.934982,9.181539 143.691162,9.508368 
	C132.646866,9.813625 121.264595,9.879130 109.417786,9.847729 
z"/>
<path fill="#5A20CD" opacity="1.000000" stroke="none" 
	d="
M281.643677,127.595985 
	C270.590271,127.977394 259.338898,127.988602 247.632751,128.011826 
	C247.822998,127.685860 248.468292,127.053177 249.112961,127.053802 
	C259.890625,127.064232 270.668152,127.153816 281.643677,127.595985 
z"/>
<path fill="#5B2EB0" opacity="1.000000" stroke="none" 
	d="
M442.612000,168.199097 
	C449.088043,168.116165 455.240723,168.249741 461.678802,168.682617 
	C457.200165,168.988037 452.435028,169.057251 447.672638,168.972946 
	C445.377380,168.932312 443.723145,169.344101 444.007019,172.568253 
	C443.810852,173.564713 443.610901,174.138672 443.144958,174.874207 
	C442.682251,172.829056 442.485474,170.622345 442.612000,168.199097 
z"/>
<path fill="#5A1DD3" opacity="1.000000" stroke="none" 
	d="
M33.033016,41.984688 
	C31.132065,39.771046 31.982714,38.979176 34.545425,39.007648 
	C43.232811,39.104172 51.920383,39.183495 60.378685,39.623432 
	C52.537407,39.988720 44.922710,39.899929 37.315582,40.099586 
	C35.875275,40.137390 34.465019,41.320309 33.040897,41.974861 
	C33.040897,41.974857 33.029716,41.985371 33.033016,41.984688 
z"/>
<path fill="#5A1DD3" opacity="1.000000" stroke="none" 
	d="
M292.243347,41.031723 
	C289.392365,40.685593 286.715149,40.107033 284.025879,40.043823 
	C277.625549,39.893383 271.219452,39.986610 264.336121,39.977425 
	C266.193237,39.645218 268.524902,39.084805 270.867615,39.033989 
	C276.944824,38.902176 283.028229,38.929699 289.106018,39.050781 
	C290.363342,39.075832 291.607056,39.781662 292.802612,40.600182 
	C292.748199,41.026638 292.411652,41.033569 292.243347,41.031723 
z"/>
<path fill="#5328AB" opacity="1.000000" stroke="none" 
	d="
M33.426491,41.820366 
	C34.465019,41.320309 35.875275,40.137390 37.315582,40.099586 
	C44.922710,39.899929 52.537407,39.988720 60.626656,39.982750 
	C61.227749,40.309212 61.351665,40.630398 61.220829,40.970570 
	C51.914745,41.214993 42.863415,41.440430 33.426491,41.820366 
z"/>
<path fill="#FFFFFF" opacity="1.000000" stroke="none" 
	d="
M97.049454,91.919724 
	C97.079712,82.456108 97.109962,72.992485 97.492050,63.290485 
	C97.891945,72.394958 97.940002,81.737816 97.713776,91.526947 
	C97.439491,91.973228 97.049454,91.919724 97.049454,91.919724 
z"/>
<path fill="#5A20D6" opacity="1.000000" stroke="none" 
	d="
M97.035645,92.392754 
	C97.049454,91.919724 97.439491,91.973228 97.635437,91.990250 
	C98.099403,99.402870 98.367432,106.798454 98.364037,114.600685 
	C97.395332,115.004951 96.698067,115.002579 96.000793,115.000198 
	C96.000793,115.000198 96.000000,115.000000 95.999847,114.999390 
	C95.998940,114.551880 95.998192,114.104988 96.001778,113.322670 
	C96.344688,106.280098 96.683266,99.572937 97.035645,92.392754 
z"/>
<path fill="#5E1FDD" opacity="1.000000" stroke="none" 
	d="
M253.415070,139.673065 
	C258.563263,140.034790 259.413666,144.072357 259.965210,148.723816 
	C257.828796,146.080734 255.707382,143.036926 253.415070,139.673065 
z"/>
<path fill="#571CD2" opacity="1.000000" stroke="none" 
	d="
M265.195648,100.984917 
	C270.297638,102.100243 267.313904,105.809410 267.306549,108.739563 
	C265.912720,108.341759 264.809387,107.674988 263.347687,106.983826 
	C262.989349,106.959442 263.033966,106.990936 263.120148,106.661804 
	C263.869446,104.550095 264.532562,102.767509 265.195648,100.984917 
z"/>
<path fill="#5A20D6" opacity="1.000000" stroke="none" 
	d="
M98.408615,58.057938 
	C96.640594,57.743626 95.216461,57.379051 93.396164,57.007172 
	C93.000000,56.999866 92.997253,56.996548 92.991959,56.800186 
	C92.986671,56.603825 92.982803,56.210979 92.982803,56.210979 
	C95.921501,54.879650 98.898689,52.028595 101.771187,56.557964 
	C100.756294,57.045364 99.754402,57.526524 98.408615,58.057938 
z"/>
<path fill="#5D19E7" opacity="1.000000" stroke="none" 
	d="
M324.449341,91.007446 
	C323.658356,90.456360 323.216400,89.874481 322.774445,89.292603 
	C324.352783,88.140442 325.931122,86.988281 327.790985,85.935501 
	C326.981140,87.682137 325.889740,89.329399 324.449341,91.007446 
z"/>
<path fill="#5A20D6" opacity="1.000000" stroke="none" 
	d="
M420.719788,56.977295 
	C420.854370,57.736774 420.687195,58.359947 420.520050,58.983120 
	C419.271729,58.551022 418.023407,58.118919 416.875427,57.403774 
	C418.123199,57.027481 419.270630,56.934231 420.719788,56.977295 
z"/>
<path fill="#5F1CE1" opacity="1.000000" stroke="none" 
	d="
M363.069855,166.356171 
	C364.427094,167.161041 367.069977,163.155655 367.992432,167.491516 
	C366.416290,167.451996 364.831146,167.062286 363.069855,166.356171 
z"/>
<path fill="#5A20D6" opacity="1.000000" stroke="none" 
	d="
M93.001297,57.001305 
	C91.521057,57.553612 90.039528,58.104477 88.298286,58.416634 
	C89.153160,57.513027 90.267746,56.848125 91.820633,56.363365 
	C92.456451,56.773693 92.702560,56.924709 92.997253,56.996548 
	C92.997253,56.996548 93.000000,56.999866 93.001297,57.001305 
z"/>
<path fill="#5C17E9" opacity="1.000000" stroke="none" 
	d="
M96.000458,115.354080 
	C96.698067,115.002579 97.395332,115.004951 98.440598,115.011719 
	C98.116890,116.005196 97.445175,116.994278 96.386688,117.906639 
	C95.999969,117.122597 96.000046,116.415276 96.000458,115.354080 
z"/>
<path fill="#5D19E7" opacity="1.000000" stroke="none" 
	d="
M325.658142,80.111862 
	C324.822845,80.844444 323.645935,81.514282 322.165680,82.057762 
	C323.013733,81.303970 324.165161,80.676544 325.658142,80.111862 
z"/>
<path fill="#5A20D6" opacity="1.000000" stroke="none" 
	d="
M414.695679,57.155148 
	C414.198059,58.147919 415.342072,61.644608 411.996460,59.147617 
	C412.762390,58.276474 413.574188,57.721138 414.695679,57.155148 
z"/>
<path fill="#5B2EB0" opacity="1.000000" stroke="none" 
	d="
M11.390263,10.151491 
	C12.246400,9.824725 13.393980,9.577254 14.788191,9.544673 
	C13.917115,9.916637 12.799410,10.073712 11.390263,10.151491 
z"/>
<path fill="#5E1FDD" opacity="1.000000" stroke="none" 
	d="
M260.068604,151.212738 
	C260.630432,151.325195 261.106750,151.653320 261.583099,151.981430 
	C261.090790,152.203842 260.598480,152.426254 259.828979,152.443054 
	C259.680603,151.959778 259.824371,151.690094 260.068604,151.212738 
z"/>
<path fill="#FFFFFF" opacity="1.000000" stroke="none" 
	d="
M104.261765,119.018127 
	C105.238205,119.002563 105.843018,119.002563 106.447823,119.002563 
	C106.439148,119.294540 106.430466,119.586517 106.421783,119.878502 
	C105.438072,119.795471 104.454353,119.712440 103.470634,119.629410 
	C103.485344,119.529480 103.466896,119.402031 103.522003,119.335632 
	C103.621521,119.215736 103.764999,119.132324 104.261765,119.018127 
z"/>
<path fill="#571CD2" opacity="1.000000" stroke="none" 
	d="
M256.465912,58.169960 
	C255.932190,58.044376 255.272202,57.693928 254.876831,57.144806 
	C255.540863,57.279118 255.940247,57.612106 256.465912,58.169960 
z"/>
<path fill="#5E1FDD" opacity="1.000000" stroke="none" 
	d="
M259.125671,152.653442 
	C259.339447,152.838928 259.469543,153.067551 259.599609,153.296173 
	C259.462677,153.277679 259.325714,153.259186 259.082947,153.057053 
	C258.977142,152.873398 259.041992,152.696594 259.125671,152.653442 
z"/>
<path fill="#5C17E9" opacity="1.000000" stroke="none" 
	d="
M92.991959,56.800186 
	C92.702560,56.924709 92.456451,56.773693 92.149597,56.353317 
	C92.040268,56.163132 92.517365,56.072624 92.750084,56.141800 
	C92.982803,56.210979 92.986671,56.603825 92.991959,56.800186 
z"/>
<path fill="#571CD2" opacity="1.000000" stroke="none" 
	d="
M257.680420,60.185165 
	C257.322113,60.347313 256.877777,60.183006 256.443176,59.624691 
	C256.833405,59.440025 257.213898,59.649364 257.680420,60.185165 
z"/>
<path fill="#502B9E" opacity="1.000000" stroke="none" 
	d="
M469.959778,2.838343 
	C463.617126,3.080649 457.292145,3.012670 450.967163,3.012526 
	C305.957520,3.009211 160.947891,3.013290 15.470850,3.050279 
	C11.656073,3.067194 8.308690,3.049822 4.510566,3.073750 
	C3.885419,3.093591 3.711015,3.072132 3.274596,3.023333 
	C4.898572,2.667027 6.784475,2.050602 8.670568,2.050017 
	C161.466232,2.002672 314.261902,2.003347 467.525452,1.991761 
	C468.438477,1.990150 468.883606,1.997250 469.662537,2.002917 
	C469.990051,2.187541 469.983765,2.373598 469.959778,2.838343 
z"/>
<path fill="#5D15F1" opacity="1.000000" stroke="none" 
	d="
M218.990891,168.989838 
	C218.825500,169.548538 218.660095,170.107239 218.247040,170.832672 
	C155.408600,170.999573 92.817802,171.010498 30.227068,170.951462 
	C28.216818,170.949554 26.207241,170.230942 24.570923,169.430984 
	C89.626625,169.006958 154.308762,168.998398 218.990891,168.989838 
z"/>
<path fill="#5328AB" opacity="1.000000" stroke="none" 
	d="
M218.710968,168.678040 
	C154.308762,168.998398 89.626625,169.006958 24.477310,169.038788 
	C19.591957,168.885300 15.173786,168.708557 10.871216,168.240509 
	C78.326279,167.965195 145.665741,167.978302 213.005188,168.012573 
	C214.813873,168.013489 216.622421,168.243195 218.710968,168.678040 
z"/>
<path fill="#5B2EB0" opacity="1.000000" stroke="none" 
	d="
M106.791367,9.577531 
	C77.358200,9.879861 47.583488,9.925572 17.326488,9.900785 
	C17.079050,9.598148 17.313900,9.366009 17.775469,9.029615 
	C45.665245,8.950402 73.328316,8.969501 100.991341,9.014026 
	C102.810989,9.016954 104.630333,9.214105 106.791367,9.577531 
z"/>
<path fill="#772DF2" opacity="1.000000" stroke="none" 
	d="
M2.174258,174.682968 
	C1.896268,140.370911 1.959384,105.803734 1.998221,71.236511 
	C2.023429,48.799824 2.013219,26.363092 2.088245,3.463154 
	C2.157611,2.999930 2.524112,3.029519 2.704314,3.060373 
	C2.917205,59.399284 2.951884,115.707336 2.962695,172.015396 
	C2.962849,172.819504 2.664237,173.623688 2.174258,174.682968 
z"/>
<path fill="#5229A0" opacity="1.000000" stroke="none" 
	d="
M463.995544,166.489410 
	C463.651581,165.396454 463.042694,163.839935 463.041565,162.282974 
	C463.004486,111.524475 463.025909,60.765934 463.059387,9.549164 
	C463.387543,11.158823 463.960999,13.226434 463.963226,15.294658 
	C464.017059,65.538284 464.010040,115.781982 463.995544,166.489410 
z"/>
<path fill="#5B2EB0" opacity="1.000000" stroke="none" 
	d="
M231.965881,9.823047 
	C203.578674,10.044120 175.204315,10.012136 146.350204,9.909866 
	C147.463928,9.560167 149.056992,9.039957 150.650925,9.037221 
	C177.456894,8.991214 204.263000,9.009721 231.537827,9.038950 
	C231.997299,9.232656 231.988022,9.401323 231.965881,9.823047 
z"/>
<path fill="#5A20CD" opacity="1.000000" stroke="none" 
	d="
M59.011730,113.972420 
	C58.676785,113.472092 58.049866,112.972336 58.048885,112.471352 
	C58.006207,90.657181 58.016602,68.842903 58.040279,47.028648 
	C58.040802,46.549763 58.269810,46.071125 58.699036,45.769226 
	C59.007797,68.621529 59.009762,91.296974 59.011730,113.972420 
z"/>
<path fill="#7B36F7" opacity="1.000000" stroke="none" 
	d="
M59.301453,113.715988 
	C59.009762,91.296974 59.007797,68.621529 58.998627,45.478710 
	C59.319237,45.496746 59.647045,45.982159 59.997795,46.776035 
	C60.012638,67.056053 60.004536,87.027603 60.005287,107.462593 
	C59.873150,109.770546 59.732162,111.615051 59.301453,113.715988 
z"/>
<path fill="#000000" opacity="1.000000" stroke="none" 
	d="
M265.134033,100.520653 
	C264.532562,102.767509 263.869446,104.550095 263.112518,106.688126 
	C248.812088,109.238480 242.857346,93.881157 245.374725,82.217949 
	C246.712387,76.020523 248.347733,69.734306 255.656036,66.979019 
	C260.214508,66.703239 263.511566,67.906380 264.563293,72.872925 
	C264.946625,82.042526 265.009521,91.049461 265.134033,100.520653 
z"/>
<path fill="#4E269E" opacity="1.000000" stroke="none" 
	d="
M290.018616,45.513180 
	C290.353851,46.773304 290.958344,48.495991 290.964386,50.220776 
	C291.035400,70.513176 291.016693,90.805901 291.046509,111.571381 
	C290.714111,110.732452 290.049622,109.421608 290.045685,108.108780 
	C289.983582,87.398247 290.006470,66.687454 290.018616,45.513180 
z"/>
<path fill="#5229A0" opacity="1.000000" stroke="none" 
	d="
M170.013901,61.502258 
	C170.347733,62.591160 170.951538,64.143372 170.960098,65.698853 
	C171.030579,78.486534 170.990402,91.274826 170.993256,104.531525 
	C170.970383,105.161858 170.990921,105.375977 170.894043,105.473755 
	C170.724792,105.644592 170.483337,105.743874 170.272156,105.873154 
	C170.180389,104.432716 170.010834,102.992378 170.008987,101.551826 
	C169.992065,88.356926 170.004272,75.162003 170.013901,61.502258 
z"/>
<path fill="#000000" opacity="1.000000" stroke="none" 
	d="
M403.225891,138.268036 
	C413.286591,129.407684 419.220276,129.980011 428.635620,138.184677 
	C435.092163,143.811005 435.009674,155.852280 429.435608,162.132736 
	C422.162140,170.327972 410.661346,168.830399 405.331085,164.873215 
	C396.119843,158.034821 396.603149,145.809998 403.225891,138.268036 
z"/>
<path fill="#000000" opacity="1.000000" stroke="none" 
	d="
M260.056091,138.857178 
	C259.353912,137.461868 258.651764,136.066574 257.613983,134.004349 
	C261.849945,134.004349 265.411377,133.940399 268.962952,134.097946 
	C269.340485,134.114685 269.660553,135.428192 269.684296,136.648224 
	C268.756012,138.203491 268.150726,139.250656 267.545410,140.297821 
	C267.545410,140.297821 267.412506,140.440109 267.090729,140.670990 
	C265.951477,141.966568 265.133972,143.031250 264.448639,143.923828 
	C263.843536,143.825089 263.614227,143.855789 263.550140,143.767105 
	C262.373688,142.138977 261.216980,140.496567 260.056091,138.857178 
z"/>
<path fill="#5E1FDD" opacity="1.000000" stroke="none" 
	d="
M260.041687,139.263885 
	C261.216980,140.496567 262.373688,142.138977 263.550140,143.767105 
	C263.614227,143.855789 263.843536,143.825089 264.448639,143.923828 
	C265.133972,143.031250 265.951477,141.966568 267.035156,140.750916 
	C269.658691,144.585175 265.188293,145.737961 264.055054,148.642273 
	C264.001892,148.987335 263.999786,148.999527 263.993652,148.999634 
	C262.667419,145.890015 261.347351,142.780304 260.041687,139.263885 
z"/>
<path fill="#5E1FDD" opacity="1.000000" stroke="none" 
	d="
M267.912964,140.482407 
	C268.150726,139.250656 268.756012,138.203491 269.653961,137.014618 
	C269.391205,138.137589 268.835846,139.402283 267.912964,140.482407 
z"/>
<path fill="#000000" opacity="1.000000" stroke="none" 
	d="
M298.212982,162.771454 
	C298.487762,164.665756 298.487762,166.337158 298.487762,168.918442 
	C293.983551,165.156708 294.106750,164.201019 298.212982,162.771454 
z"/>
<path fill="#772DF2" opacity="1.000000" stroke="none" 
	d="
M293.693298,164.901154 
	C293.726013,165.465500 293.596893,165.865204 293.467804,166.264908 
	C293.359863,166.155182 293.144165,166.021896 293.162170,165.939682 
	C293.251465,165.531219 293.402344,165.136246 293.693298,164.901154 
z"/>
</svg>